<svg xmlns="http://www.w3.org/2000/svg" viewBox="-158.244 -150.252 1577.34 520.78">
  <defs>
    <linearGradient id="a" x1="635.28" x2="1420.2" y1="750.67" y2="750.67" gradientUnits="userSpaceOnUse">
      <stop offset="0" stop-color="#606162"/>
      <stop offset=".12" stop-color="#b7babb"/>
      <stop offset=".36" stop-color="#a2a5a6"/>
      <stop offset=".51" stop-color="#c9cccd"/>
      <stop offset=".73" stop-color="#848687"/>
      <stop offset=".88" stop-color="#9c9fa0"/>
      <stop offset="1" stop-color="#4c4d4e"/>
    </linearGradient>
    <linearGradient id="b" x1="1023.8" x2="1023.8" y1="738.51" y2="749.87" gradientUnits="userSpaceOnUse">
      <stop offset="0" stop-color="#9c9fa0"/>
      <stop offset=".24" stop-color="#a2a5a6"/>
      <stop offset="1" stop-color="#4c4d4e"/>
    </linearGradient>
    <linearGradient id="c" x1="1564.1" x2="1572.8" y1="765.1" y2="750.06" gradientUnits="userSpaceOnUse">
      <stop offset="0" stop-color="#0a0a0a"/>
      <stop offset=".57" stop-color="#1b1b1b"/>
      <stop offset="1" stop-color="#090909"/>
    </linearGradient>
    <radialGradient id="d" cx="390.29" cy="758.76" r="10.65" gradientTransform="matrix(.67172 .7408 -.44448 .40303 465.38 163.82)" gradientUnits="userSpaceOnUse">
      <stop offset="0" stop-color="#2a2a2a"/>
      <stop offset="1" stop-color="#090909"/>
    </radialGradient>
    <radialGradient id="e" cx="390.29" cy="758.76" r="11.15" gradientTransform="rotate(47.8 390.295 758.748)" gradientUnits="userSpaceOnUse">
      <stop offset=".13" stop-color="#464646"/>
      <stop offset=".37" stop-color="#2b2b2b"/>
      <stop offset="1" stop-color="#090909"/>
    </radialGradient>
  </defs>
  <g transform="matrix(1.0538 0 0 1.00604 -344.538 -445.928)">
    <path fill="#040404" d="M748.75 320.73H1311c19.429 0 35.18 15.751 35.18 35.18v380.83H713.57V355.91c0-19.429 15.751-35.18 35.18-35.18z" class="cls-1"/>
    <rect width="570.87" height="342.5" x="745.68" y="359.02" fill="#fff" class="cls-2" rx="2.21" ry="2.21"/>
    <ellipse cx="1030.8" cy="341.95" fill="#4d4d4d" class="cls-3" rx="3.62" ry="2.15"/>
    <image width="77" height="75" x="991.71" y="304.23"/>
    <path fill="#86328c" d="M744.87 375.76h570.87v23.16H744.87zM794.56 409.43h464.57v120.11H794.56z" class="cls-4"/>
    <path fill="#f7f7f7" d="M879.45 460.96h294.79v24.48H879.45z" class="cls-5"/>
    <path fill="#ec008c" d="M1111.4 460.96h62.79v24.77h-62.79z" class="cls-6"/>
    <path fill="#0083ca" d="M954.76 542.92h143.29v63.19H954.76zM1115.8 541.46h143.29v63.19H1115.8zM794.56 542.92h143.29v63.19H794.56z" class="cls-7"/>
    <path fill="#999" d="M955.2 616.31h143.29v4.21H955.2zM955.2 628.39h143.29v4.21H955.2zM955.2 640.47h143.29v4.21H955.2zM955.2 652.56h143.29v4.21H955.2z" class="cls-8"/>
    <path fill="#ed1164" d="M794.56 666.65h464.57v34.71H794.56z" class="cls-9"/>
    <path fill="#999" d="M794.56 615.84h143.29v4.21H794.56zM794.56 627.92h143.29v4.21H794.56zM794.56 640h143.29v4.21H794.56zM794.56 652.08h143.29v4.21H794.56zM1115.8 616.31h143.29v4.21H1115.8zM1115.8 628.39h143.29v4.21H1115.8zM1115.8 640.47h143.29v4.21H1115.8zM1115.8 652.56h143.29v4.21H1115.8zM1117.9 385.14h69.35v5.75h-69.35z" class="cls-8"/>
    <path fill="#afafaf" d="M1030.8 385.14h69.35v5.75h-69.35z" class="cls-10"/>
    <path fill="#999" d="M860.47 385.14h69.35v5.75h-69.35zM943.78 385.14h69.35v5.75h-69.35z" class="cls-8"/>
    <path fill="#919296" d="M1414.8 757.18c0 6.37-25.13 15.61-29.82 15.61H673.62c-4.69 0-29.82-9.25-29.82-15.61z" class="cls-11"/>
    <path fill="url(#a)" d="M635.28 736.61h784.87v5.24c0 12.636-10.244 22.88-22.88 22.88H657.6c-12.327 0-22.32-9.993-22.32-22.32v-5.8z" class="cls-12"/>
    <path fill="#464142" d="M1396 769c0 2.75-23.93 6.74-28.39 6.74H690.28c-4.46 0-28.39-4-28.39-6.74z" class="cls-13"/>
    <path fill="url(#b)" d="M1078.4 738.51c-.11 6.185-5.066 11.19-11.25 11.36h-87.7c-6.34 0-10.24-5.68-10.24-11.35z" class="cls-14"/>
    <path fill="#1d1e21" d="M915.45 773.69c2.13-1.65 8.12-1.61 9.65.06a17.18 17.18 0 01-9.65-.06zM1128.2 774.13c2.13-1.65 8.12-1.61 9.65.06a17.18 17.18 0 01-9.65-.06zM690 773.37c2.13-1.65 8.12-1.61 9.65.06a17.18 17.18 0 01-9.65-.06zM1350.3 773.92c2.13-1.65 8.12-1.61 9.65.06a17.18 17.18 0 01-9.65-.06z" class="cls-15"/>
    <path fill="#0d0f12" d="M1343 752.5a5.932 5.932 0 01-1.58.47h-23a2.072 2.072 0 01-1.57-.51c8.71-.21 17.44-.27 26.15.04z" class="cls-16"/>
    <path fill="#1c1e20" d="M1316.4 754.19c-1-1.23-1.89-2.44.42-3.24 5.82.52 11.65.15 17.47.21 2.903.184 5.816.131 8.71-.16 2.3 1.13 1.26 2.22 0 3.3-1.55.66-3.18.29-4.76.3-6.36.05-12.73 0-19.1 0-.93-.02-1.93.4-2.74-.41z" class="cls-17"/>
    <path fill="#dcdde0" d="M1316.4 754.19l26.58.08a3.69 3.69 0 01-.05.47c-8.787.047-17.573.077-26.36.09-.07 0-.2-.09-.2-.14a3.22 3.22 0 01.03-.5z" class="cls-18"/>
    <path fill="#0d0f12" d="M1343 751a5.932 5.932 0 01-1.58.47h-23a2.072 2.072 0 01-1.57-.51c8.71-.23 17.44-.29 26.15.04z" class="cls-16"/>
    <path fill="#0d0f12" d="M1343 751a5.932 5.932 0 01-1.58.47h-23a2.072 2.072 0 01-1.57-.51c8.71-.23 17.44-.29 26.15.04z" class="cls-16"/>
    <path fill="#1c1e20" d="M1316.4 754.19c-1-1.23-1.89-2.44.42-3.24 5.82.52 11.65.15 17.47.21 2.903.184 5.816.131 8.71-.16 2.3 1.13 1.26 2.22 0 3.3-1.55.66-3.18.29-4.76.3-6.36.05-12.73 0-19.1 0-.93-.02-1.93.4-2.74-.41z" class="cls-17"/>
    <path fill="#cecece" d="M1316.4 754.19l26.58.08a3.69 3.69 0 01-.05.47c-8.787.047-17.573.077-26.36.09-.07 0-.2-.09-.2-.14a3.22 3.22 0 01.03-.5z" class="cls-19"/>
    <path fill="#0d0f12" d="M1343 751a5.932 5.932 0 01-1.58.47h-23a2.072 2.072 0 01-1.57-.51c8.71-.23 17.44-.29 26.15.04z" class="cls-16"/>
    <rect width="139.01" height="261.76" x="1497.9" y="513.8" fill="#040404" class="cls-1" rx="20.53" ry="20.53"/>
    <ellipse cx="1568.4" cy="757.58" fill="url(#c)" stroke="#0c0c0c" stroke-miterlimit="10" class="cls-20" rx="8.11" ry="8.86"/>
    <image width="85" height="86" opacity=".63" transform="translate(1525.8 714.68)"/>
    <path fill="none" stroke="#424242" stroke-miterlimit="10" d="M1566.8 755.41h2.75a1 1 0 011 1v2.31a1.68 1.68 0 01-1.68 1.68h-2.09a1 1 0 01-1-1v-3a1 1 0 011.02-.99z" class="cls-22" opacity=".55"/>
    <ellipse cx="1552.8" cy="533.13" fill="#4d4d4d" class="cls-3" rx=".86" ry="1.3"/>
    <image width="74" height="74" x="1515.8" y="495.68"/>
    <rect width="18.25" height="2.36" x="1559.8" y="532.23" fill="#191918" class="cls-23" rx="1.18" ry="1.18"/>
    <rect width="15.43" height="1.77" x="1561.4" y="532.52" fill="#423f43" class="cls-24" rx=".89" ry=".89"/>
    <image width="82" height="73" x="1530.8" y="496.68"/>
    <rect width="113.99" height="186.7" x="1511.1" y="548.3" fill="#fff" class="cls-2" rx="2.21" ry="2.21"/>
    <path fill="#86328c" d="M1511.1 561.9h113.99v11.68H1511.1zM1511.2 580.24h113.99v55.88H1511.2z" class="cls-4"/>
    <path fill="#f7f7f7" d="M1523.1 601.15h82.52v12.06h-82.52z" class="cls-5"/>
    <path fill="#0083ca" d="M1553.6 641.06h28.61v22.32h-28.61zM1589.9 641.17h28.61v22.32h-28.61zM1517.6 641.17h28.61v22.32h-28.61z" class="cls-7"/>
    <path fill="#999" d="M1553.6 667.76h28.61v2.05h-28.61zM1553.6 672.3h28.61v2.05h-28.61zM1553.6 676.84h28.61v2.05h-28.61zM1553.6 681.38h28.61v2.05h-28.61zM1553.6 685.92h28.61v2.05h-28.61zM1589.9 667.7h28.61v2.05h-28.61zM1589.9 672.24h28.61v2.05h-28.61zM1589.9 676.78h28.61v2.05h-28.61zM1589.9 681.32h28.61v2.05h-28.61zM1589.9 685.87h28.61v2.05h-28.61zM1517.6 667.7h28.61v2.05h-28.61zM1517.6 672.24h28.61v2.05h-28.61zM1517.6 676.78h28.61v2.05h-28.61zM1517.6 681.32h28.61v2.05h-28.61zM1517.6 685.87h28.61v2.05h-28.61z" class="cls-8"/>
    <path fill="#ed1164" d="M1517.7 692.44h100.93v28.29H1517.7z" class="cls-9"/>
    <path fill="#999" d="M1517.7 724.58h100.93v2.04H1517.7zM1517.7 729.13h100.93v2.09H1517.7z" class="cls-8"/>
    <path fill="#666" d="M1514.8 552.41h5.39v.75h-5.39zM1514.8 554.56h5.39v.75h-5.39zM1514.8 556.71h5.39v.75h-5.39z" class="cls-25"/>
    <path fill="#ec008c" d="M1589.9 601.15h15.89v12.29h-15.89z" class="cls-6"/>
    <rect width="353.63" height="459.23" x="213.48" y="318.61" fill="#040404" class="cls-1" rx="35.18" ry="35.18"/>
    <rect width="284.78" height="378.09" x="247.9" y="360.88" fill="#fff" class="cls-2" rx="2.21" ry="2.21"/>
    <circle cx="390.29" cy="342.08" r="2.37" fill="#4d4d4d" class="cls-3"/>
    <image width="76" height="75" x="351.71" y="304.23"/>
    <circle cx="390.29" cy="758.76" r="10.65" fill="url(#d)" stroke="url(#e)" stroke-miterlimit="10" class="cls-26" transform="rotate(-47.8 390.285 758.76)"/>
    <image width="88" height="85" opacity=".93" transform="translate(346.71 716.23)"/>
    <image width="80" height="80" opacity=".55" transform="translate(350.71 719.23)"/>
    <path fill="#86328c" d="M247.9 390.12h284.78v23.75H247.9zM263.82 427.42h252.64v113.64H263.82z" class="cls-4"/>
    <path fill="#f7f7f7" d="M295.82 476.05h184.2v19.36h-184.2z" class="cls-5"/>
    <path fill="#ec008c" d="M440.78 476.05h39.23v19.58h-39.23z" class="cls-6"/>
    <path fill="#0083ca" d="M354.12 551.1h71.48v45.38h-71.48zM444.71 551.33h71.48v45.38h-71.48zM264.04 551.33h71.48v45.38h-71.48z" class="cls-7"/>
    <path fill="#999" d="M354.12 605.39h71.48v4.17h-71.48zM354.12 614.62h71.48v4.17h-71.48zM354.12 623.86h71.48v4.17h-71.48zM354.12 633.09h71.48v4.17h-71.48zM354.12 642.33h71.48v4.17h-71.48zM444.71 605.27h71.48v4.17h-71.48zM444.71 614.51h71.48v4.17h-71.48zM444.71 623.74h71.48v4.17h-71.48zM444.71 632.98h71.48v4.17h-71.48zM444.71 642.21h71.48v4.17h-71.48zM264.04 605.27h71.48v4.17h-71.48zM264.04 614.51h71.48v4.17h-71.48zM264.04 623.74h71.48v4.17h-71.48zM264.04 632.98h71.48v4.17h-71.48zM264.04 642.21h71.48v4.17h-71.48z" class="cls-8"/>
    <path fill="#ed1164" d="M264.31 655.58h252.15v57.53H264.31z" class="cls-9"/>
    <path fill="#999" d="M264.31 720.95h252.15v4.15H264.31zM264.31 730.19h252.15v4.25H264.31z" class="cls-8"/>
    <path fill="#666" d="M257.09 370.83h13.46v1.53h-13.46zM257.09 375.2h13.46v1.53h-13.46zM257.09 379.58h13.46v1.53h-13.46z" class="cls-25"/>
  </g>
</svg>